# xmcd
# 
# Track frame offsets:
#     150
#     50437
#     109389
#     178625
# 
# Disc length: 3067
# 
# Revision: 0
# Processed by: cddbd v1.5.2PL0 Copyright (c) Steve Scherf et al.
# Submitted via: fre:ac v1.0.31
# 
DISCID=310bf904
DTITLE=Eduardo Niebla and Adel Salameh - Mediterráneo
DYEAR=0
DGENRE=
TTITLE0=Mediterráneo
TTITLE1=Andalucía
TTITLE2=Jardines del corazón
TTITLE3=Oasis
EXTD=
EXTT0=
EXTT1=
EXTT2=
EXTT3=
PLAYORDER=
